<?xml version="1.0" encoding="UTF-8" standalone="no"?>
<!DOCTYPE svg PUBLIC "-//W3C//DTD SVG 1.1//EN" "http://www.w3.org/Graphics/SVG/1.1/DTD/svg11.dtd">
<svg version="1.1" xmlns="http://www.w3.org/2000/svg" xmlns:xlink="http://www.w3.org/1999/xlink" preserveAspectRatio="xMidYMid meet" viewBox="0 0 640 640" width="1300" height="1300"><defs><path d="M640 0L640 362.43L2.53 334.14L0 0L640 0Z" id="aLC8QIIoa"></path><path d="M380 114.13C380 161.52 342.32 200 295.92 200C249.51 200 211.83 161.52 211.83 114.13C211.83 66.74 249.51 28.26 295.92 28.26C342.32 28.26 380 66.74 380 114.13Z" id="dmcg2eWpr"></path><path d="M440.19 20C461.89 20 479.48 37.17 479.48 58.35C479.48 59.14 479.46 59.94 479.4 60.72C495.07 63.95 506.59 74.73 506.59 87.54C506.59 87.54 506.59 87.54 506.59 87.54C506.59 102.9 490.05 115.35 469.64 115.35C460.37 115.35 386.22 115.35 376.95 115.35C356.55 115.35 340 102.9 340 87.54C340 87.54 340 87.54 340 87.54C340 74.16 352.58 62.98 369.32 60.34C370.82 45.83 383.37 34.5 398.63 34.5C401.99 34.5 405.21 35.05 408.21 36.05C415.35 26.33 427.01 20 440.19 20Z" id="b3sK6lyyIF"></path><path d="M78.23 168.82L79.64 168.96L81.04 169.15L82.42 169.38L83.78 169.67L85.12 170.01L86.44 170.39L87.74 170.82L89.01 171.29L90.26 171.81L91.48 172.38L92.67 172.98L93.84 173.63L94.97 174.32L96.08 175.05L97.15 175.81L98.19 176.61L99.2 177.45L100.17 178.33L101.1 179.23L102 180.17L102.86 181.15L103.67 182.15L104.45 183.18L105.19 184.24L105.88 185.33L106.53 186.45L107.13 187.59L107.69 188.75L108.2 189.94L108.66 191.16L109.07 192.39L109.43 193.64L109.73 194.91L109.99 196.2L110.19 197.51L110.33 198.84L110.42 200.17L110.45 201.53L110.42 202.88L110.33 204.22L110.19 205.55L109.99 206.88L109.73 208.19L109.43 209.5L109.07 210.81L108.66 212.12L108.2 213.42L107.69 214.73L107.13 216.04L106.53 217.35L105.88 218.67L105.19 219.99L104.45 221.33L103.67 222.67L102.86 224.03L102 225.4L101.1 226.78L100.17 228.18L99.2 229.6L98.19 231.04L97.15 232.49L96.08 233.97L94.97 235.48L93.84 237.01L92.67 238.57L91.48 240.15L90.26 241.77L89.01 243.41L87.74 245.1L86.44 246.81L85.12 248.56L83.78 250.35L82.42 252.18L81.04 254.05L79.64 255.96L78.23 257.92L76.79 259.92L75.35 261.97L73.9 259.92L72.47 257.92L71.05 255.96L69.65 254.05L68.27 252.18L66.91 250.35L65.57 248.56L64.25 246.81L62.96 245.1L61.68 243.41L60.44 241.77L59.22 240.15L58.02 238.57L56.86 237.01L55.72 235.48L54.62 233.97L53.54 232.49L52.5 231.04L51.5 229.6L50.53 228.18L49.59 226.78L48.7 225.4L47.84 224.03L47.02 222.67L46.24 221.33L45.51 219.99L44.81 218.67L44.16 217.35L43.56 216.04L43 214.73L42.5 213.42L42.04 212.12L41.63 210.81L41.27 209.5L40.96 208.19L40.71 206.88L40.51 205.55L40.36 204.22L40.28 202.88L40.25 201.53L40.28 200.17L40.36 198.84L40.51 197.51L40.71 196.2L40.96 194.91L41.27 193.64L41.63 192.39L42.04 191.16L42.5 189.94L43 188.75L43.56 187.59L44.16 186.45L44.81 185.33L45.51 184.24L46.24 183.18L47.02 182.15L47.84 181.15L48.7 180.17L49.59 179.23L50.53 178.33L51.5 177.45L52.5 176.61L53.54 175.81L54.62 175.05L55.72 174.32L56.86 173.63L58.02 172.98L59.22 172.38L60.44 171.81L61.68 171.29L62.96 170.82L64.25 170.39L65.57 170.01L66.91 169.67L68.27 169.38L69.65 169.15L71.05 168.96L72.47 168.82L73.9 168.74L75.35 168.72L76.79 168.74L78.23 168.82ZM73.98 184.31L73.31 184.37L72.65 184.46L72 184.57L71.35 184.71L70.72 184.87L70.09 185.05L69.48 185.25L68.87 185.48L68.28 185.73L67.71 185.99L67.14 186.28L66.59 186.59L66.05 186.91L65.53 187.26L65.02 187.62L64.53 188L64.05 188.4L63.59 188.81L63.15 189.24L62.72 189.68L62.32 190.15L61.93 190.62L61.56 191.11L61.21 191.61L60.88 192.13L60.58 192.66L60.29 193.2L60.03 193.75L59.79 194.31L59.57 194.89L59.37 195.47L59.2 196.06L59.06 196.67L58.94 197.28L58.84 197.9L58.78 198.52L58.73 199.16L58.72 199.8L58.73 200.44L58.78 201.07L58.84 201.7L58.94 202.32L59.06 202.93L59.2 203.53L59.37 204.13L59.57 204.71L59.79 205.29L60.03 205.85L60.29 206.4L60.58 206.94L60.88 207.47L61.21 207.99L61.56 208.49L61.93 208.98L62.32 209.45L62.72 209.91L63.15 210.36L63.59 210.79L64.05 211.2L64.53 211.6L65.02 211.98L65.53 212.34L66.05 212.69L66.59 213.01L67.14 213.32L67.71 213.61L68.28 213.87L68.87 214.12L69.48 214.35L70.09 214.55L70.72 214.73L71.35 214.89L72 215.03L72.65 215.14L73.31 215.23L73.98 215.29L74.66 215.33L75.35 215.34L76.03 215.33L76.71 215.29L77.38 215.23L78.04 215.14L78.7 215.03L79.34 214.89L79.98 214.73L80.6 214.55L81.22 214.35L81.82 214.12L82.41 213.87L82.99 213.61L83.55 213.32L84.1 213.01L84.64 212.69L85.17 212.34L85.67 211.98L86.17 211.6L86.64 211.2L87.1 210.79L87.55 210.36L87.97 209.91L88.38 209.45L88.77 208.98L89.13 208.49L89.48 207.99L89.81 207.47L90.12 206.94L90.4 206.4L90.67 205.85L90.91 205.29L91.13 204.71L91.32 204.13L91.49 203.53L91.64 202.93L91.76 202.32L91.85 201.7L91.92 201.07L91.96 200.44L91.97 199.8L91.96 199.16L91.92 198.52L91.85 197.9L91.76 197.28L91.64 196.67L91.49 196.06L91.32 195.47L91.13 194.89L90.91 194.31L90.67 193.75L90.4 193.2L90.12 192.66L89.81 192.13L89.48 191.61L89.13 191.11L88.77 190.62L88.38 190.15L87.97 189.68L87.55 189.24L87.1 188.81L86.64 188.4L86.17 188L85.67 187.62L85.17 187.26L84.64 186.91L84.1 186.59L83.55 186.28L82.99 185.99L82.41 185.73L81.82 185.48L81.22 185.25L80.6 185.05L79.98 184.87L79.34 184.71L78.7 184.57L78.04 184.46L77.38 184.37L76.71 184.31L76.03 184.27L75.35 184.26L74.66 184.27L73.98 184.31Z" id="a2YvVTkgIR"></path><path d="M391.25 292.23L130.35 292.23L173.29 343.25L235.93 380L283.25 380" id="d1ecdNtQjr"></path><path d="M640 280.71C636.51 284.23 634.34 286.43 633.47 287.31C608.74 312.3 566.48 303.57 553.68 270.83C547.83 255.86 545.06 248.77 536.1 225.85C531.21 213.34 514.23 211.58 506.88 222.82C498.08 236.26 483.81 258.05 473.66 273.57C468.09 282.08 456.11 283.34 448.89 276.18C441.13 268.5 440.2 267.57 434.53 261.95C421.7 249.24 400.56 250.99 389.99 265.63C382.82 275.56 379.03 280.82 371.26 291.58C360.09 307.07 344.75 319.06 327.04 326.18C312.64 331.96 308.78 333.51 297.43 338.07C270.34 348.95 239.99 348.37 213.33 336.46C201.38 331.12 205.56 332.99 193.19 327.46C167.12 315.8 143.98 298.47 125.47 276.72C122.05 272.7 128.23 279.97 121.89 272.52C113.46 262.61 100.55 257.68 87.65 259.44C78.07 260.75 77.42 260.84 69.69 261.9C50.46 264.53 32.96 274.41 20.77 289.52C18 292.96 11.08 301.55 0 315.29L0 549.98L640 540L640 280.71Z" id="cAWKfxFoZ"></path><path d="M273.9 340C285.87 348.56 293.36 353.92 296.35 356.06C320.33 373.21 326.38 406.28 310.03 430.81C306.14 436.65 315.9 422.01 310.03 430.81C299.63 446.42 305.02 467.6 321.62 476.32C331.82 481.69 315.41 473.06 321.62 476.32C355.46 494.11 391.66 507 429.13 514.59C445.84 517.98 487.63 526.45 554.48 540L380 542.65C369.87 539.85 363.54 538.1 361.01 537.4C326.9 527.98 295.99 509.49 271.56 483.89C267 479.11 279.02 491.71 271.56 483.89C258.4 470.11 257.14 448.83 268.59 433.59C274.87 425.23 279.92 418.5 287.72 408.13C294.97 398.47 294.88 385.15 287.49 375.59C283.83 370.84 274.66 358.98 260 340" id="a4pnUI7pdn"></path><path d="M606.88 97.63C628.57 97.63 646.17 114.8 646.17 135.97C646.17 136.77 646.14 137.57 646.09 138.35C661.76 141.57 673.28 152.36 673.28 165.17C673.28 165.17 673.28 165.17 673.28 165.17C673.28 180.53 656.74 192.97 636.33 192.97C627.06 192.97 552.91 192.97 543.64 192.97C523.23 192.97 506.69 180.53 506.69 165.17C506.69 165.17 506.69 165.17 506.69 165.17C506.69 151.78 519.26 140.61 536.01 137.97C537.51 123.45 550.06 112.13 565.32 112.13C568.68 112.13 571.89 112.67 574.9 113.68C582.03 103.96 593.7 97.63 606.88 97.63Z" id="d1yIOCCJyG"></path><path d="" id="b73DLO65qr"></path></defs><g><g><g></g><use xlink:href="#aLC8QIIoa" opacity="1" fill="#d5eaf8" fill-opacity="1"></use><g><use xlink:href="#aLC8QIIoa" opacity="1" fill-opacity="0" stroke="#f7ffa1" stroke-width="1" stroke-opacity="0"></use></g><g></g></g><g><use xlink:href="#dmcg2eWpr" opacity="1" fill="#ffc300" fill-opacity="1"></use></g><g><use xlink:href="#b3sK6lyyIF" opacity="1" fill="#899cff" fill-opacity="1"></use></g><g><use xlink:href="#a2YvVTkgIR" opacity="1" fill="#870f5d" fill-opacity="1"></use></g><g><use xlink:href="#d1ecdNtQjr" opacity="1" fill="#1f3cd1" fill-opacity="1"></use><g><use xlink:href="#d1ecdNtQjr" opacity="1" fill-opacity="0" stroke="#000000" stroke-width="1" stroke-opacity="1"></use></g></g><g><g></g><use xlink:href="#cAWKfxFoZ" opacity="1" fill="#38cb7c" fill-opacity="1"></use><g><use xlink:href="#cAWKfxFoZ" opacity="1" fill-opacity="0" stroke="#ffffff" stroke-width="1" stroke-opacity="0"></use></g><g></g></g><g><use xlink:href="#a4pnUI7pdn" opacity="1" fill="#05713b" fill-opacity="1"></use><g><use xlink:href="#a4pnUI7pdn" opacity="1" fill-opacity="0" stroke="#874040" stroke-width="1" stroke-opacity="0"></use></g></g><g><use xlink:href="#d1yIOCCJyG" opacity="1" fill="#899cff" fill-opacity="1"></use></g><g><g><use xlink:href="#b73DLO65qr" opacity="1" fill-opacity="0" stroke="#874040" stroke-width="1" stroke-opacity="0.98"></use></g></g></g></svg>